<svg width="125" height="124" viewBox="0 0 125 124" fill="none" xmlns="http://www.w3.org/2000/svg">
<rect x="1.5" y="1" width="122" height="122" stroke="#D6D6D6" stroke-width="2"/>
<path fill-rule="evenodd" clip-rule="evenodd" d="M57.0006 26.2403C56.4179 26.5581 47.9127 35.2149 47.6142 35.7939C47.3051 36.3937 47.3216 36.9947 47.6654 37.6687C48.0939 38.5086 48.7639 38.7905 50.331 38.7905H51.6028V41.1878C51.6028 43.9862 51.7492 44.4812 52.7246 44.9788C53.2479 45.2457 53.547 45.262 57.9336 45.262C62.3202 45.262 62.6193 45.2457 63.1426 44.9788C64.118 44.4812 64.2644 43.9862 64.2644 41.1878V38.7905H65.5362C67.1033 38.7905 67.7733 38.5086 68.2018 37.6687C68.5456 36.9947 68.5621 36.3937 68.253 35.7939C67.9545 35.2149 59.4493 26.5581 58.8666 26.2403C58.6242 26.108 58.2044 26 57.9336 26C57.6628 26 57.243 26.108 57.0006 26.2403ZM40.033 49.7727C39.1894 50.2181 38.9411 50.8719 38.9411 52.648C38.9411 54.4498 39.1879 55.0838 40.0629 55.5302C40.6115 55.8101 40.8525 55.8134 60.0439 55.8134C79.2353 55.8134 79.4763 55.8101 80.0248 55.5302C80.8999 55.0838 81.1467 54.4498 81.1467 52.648C81.1467 50.8463 80.8999 50.2122 80.0248 49.7658C79.4762 49.486 79.2416 49.4827 60.0143 49.4888C40.922 49.495 40.5491 49.5002 40.033 49.7727ZM31.5919 60.3241C30.7483 60.7695 30.5 61.4232 30.5 63.1994C30.5 65.0012 30.7468 65.6352 31.6218 66.0816C32.1678 66.3602 32.4215 66.3648 47.0391 66.3648H61.9012L62.8985 65.4415C65.8736 62.687 70.1745 60.7205 74.3938 60.1856C74.9033 60.1211 65.7456 60.0645 53.713 60.058C32.4724 60.0466 32.1093 60.051 31.5919 60.3241ZM75.2379 64.3187C75.1218 64.3468 74.552 64.4467 73.9717 64.5407C71.7247 64.9044 68.8948 66.0962 67.03 67.4644C63.6517 69.9429 61.2754 73.6221 60.3801 77.7603C60.0205 79.4217 60.0205 82.8518 60.3801 84.5132C61.8472 91.2932 67.0607 96.3986 73.9014 97.7535C75.3565 98.0418 78.8099 98.0029 80.3025 97.6815C87.0747 96.2234 92.1879 91.0022 93.5428 84.1615C93.8311 82.7064 93.7923 79.253 93.4708 77.7603C92.0588 71.202 87.0853 66.1456 80.5839 64.6586C79.4936 64.4091 75.8262 64.176 75.2379 64.3187ZM77.9146 70.5872C78.559 70.916 79.0364 71.7211 79.0364 72.479C79.0364 72.8061 79.1024 72.977 79.2285 72.977C79.616 72.977 81.4234 73.9861 81.7667 74.394C82.7344 75.5441 82.1555 77.3399 80.6894 77.7358C80.0869 77.8986 79.4358 77.7628 78.6799 77.3167C77.9971 76.9139 76.7186 76.8224 75.8424 77.1133C75.155 77.3416 74.5345 77.7831 74.5345 78.0439C74.5345 78.3554 75.3465 78.6452 77.478 79.0946C80.5992 79.7524 81.8091 80.3427 82.7047 81.6445C83.2469 82.4325 83.5951 83.8018 83.4865 84.7185C83.3667 85.7311 82.6639 87.0651 81.893 87.7436C81.3273 88.2416 80.0458 88.9604 79.2826 89.2079C79.109 89.2641 79.0364 89.4358 79.0364 89.79C79.0364 90.9324 78.0272 91.9695 76.9157 91.9695C75.866 91.9695 74.8158 90.8982 74.8158 89.8276C74.8158 89.3981 74.7633 89.3439 74.1279 89.1182C73.1318 88.7644 72.111 88.0348 71.8185 87.4676C71.5066 86.8624 71.5716 85.9056 71.9602 85.3852C72.7117 84.3784 73.7137 84.2016 74.9635 84.8552C75.9122 85.3513 76.9271 85.4587 77.9241 85.1689C78.6565 84.9561 79.3177 84.5104 79.3177 84.2296C79.3177 83.9178 78.5047 83.628 76.3629 83.1765C73.7446 82.6246 72.5815 82.1459 71.6895 81.253C70.9488 80.5111 70.6107 79.827 70.4121 78.6672C70.002 76.2727 71.6455 74.0597 74.5696 73.0693C74.7444 73.0101 74.8175 72.8314 74.8217 72.4538C74.8299 71.7197 75.2315 71.0332 75.884 70.6381C76.5576 70.2304 77.1843 70.2147 77.9146 70.5872ZM35.8124 70.8755C34.9689 71.3209 34.7206 71.9746 34.7206 73.7508C34.7206 75.5525 34.9673 76.1866 35.8424 76.633C36.3833 76.9089 36.6531 76.9162 46.3161 76.9162H56.2345L56.3856 76.3183C56.7184 75.002 57.4319 73.1199 58.066 71.8867L58.7349 70.5854L47.5367 70.5916C36.6654 70.5976 36.3231 70.6059 35.8124 70.8755ZM31.5919 81.4268C30.7483 81.8723 30.5 82.526 30.5 84.3022C30.5 86.1039 30.7468 86.738 31.6218 87.1844C32.1657 87.4618 32.4271 87.4676 44.5418 87.4676H56.9066L56.583 86.3503C56.2319 85.138 55.8233 82.6462 55.8233 81.7167V81.1367L43.9706 81.1429C32.4476 81.149 32.1032 81.1569 31.5919 81.4268ZM35.8124 91.9782C34.9689 92.4236 34.7206 93.0774 34.7206 94.8535C34.7206 96.6562 34.9672 97.2892 35.8436 97.7363C36.3923 98.0163 36.5994 98.0198 50.3559 97.9845L64.3114 97.9486L63.281 97.1056C62.0662 96.1117 60.6281 94.4869 59.5215 92.8579L58.7269 91.6881L47.5328 91.6943C36.6652 91.7004 36.3231 91.7087 35.8124 91.9782Z" fill="black"/>
</svg>
