<svg width="125" height="124" viewBox="0 0 125 124" fill="none" xmlns="http://www.w3.org/2000/svg">
<rect x="1.5" y="1" width="122" height="122" stroke="#D6D6D6" stroke-width="2"/>
<path fill-rule="evenodd" clip-rule="evenodd" d="M59.9228 26.0405C59.6517 26.0724 58.8282 26.1642 58.0926 26.2445C51.7799 26.933 44.968 29.8234 39.6497 34.0697C38.0511 35.3461 35.3046 38.1045 33.9892 39.7545C30.4397 44.2072 27.8728 49.712 26.8242 55.1193C26.3995 57.31 26.3926 58.4179 26.8003 58.9895C27.3719 59.7907 27.7851 59.8867 30.6608 59.8864C32.8391 59.8863 33.3208 59.8477 33.734 59.64C34.4149 59.2979 34.806 58.6437 34.9958 57.5294C35.694 53.4294 37.3761 49.4932 40.0097 45.7968C41.0531 44.3324 43.9853 41.3555 45.5317 40.191C52.9562 34.5995 62.2605 32.962 70.743 35.7541C72.7401 36.4114 75.8148 37.9361 77.7861 39.2465C78.6675 39.8324 79.5979 40.3511 79.8535 40.3991C80.7192 40.5614 81.1791 40.2631 83.1836 38.2389C85.2812 36.1208 85.4677 35.7807 85.1377 34.679C84.9648 34.1022 84.5556 33.7172 82.8003 32.4805C78.2743 29.2916 72.9163 27.147 67.3843 26.3099C65.9799 26.0973 60.9737 25.9166 59.9228 26.0405ZM88.2909 39.3918C88.0586 39.4961 87.0365 40.4281 86.0195 41.4629C83.5127 44.0139 83.4996 44.0989 85.2162 46.6788C86.506 48.6171 88.0313 51.6968 88.6897 53.6921C91.3081 61.6258 90.0639 70.1072 85.2021 77.4696C84.0709 79.1825 83.8774 79.7228 84.1259 80.4759C84.3581 81.1791 87.9964 84.7403 88.6186 84.8733C89.9081 85.1492 90.5329 84.6402 92.4425 81.758C93.8906 79.5725 95.5257 76.3506 96.3619 74.0356C97.0669 72.084 97.8281 69.0453 98.1605 66.8555C98.5183 64.4981 98.5189 59.5043 98.1615 57.1414C97.2638 51.2083 94.6722 45.0922 91.0746 40.4168C90.1852 39.2609 89.3051 38.9368 88.2909 39.3918ZM60.7675 45.1685C60.6513 45.1966 60.0811 45.2966 59.5004 45.3906C58.0226 45.6298 56.1762 46.2572 54.6877 47.026C46.4787 51.2657 43.2289 61.3597 47.406 69.6435C49.7014 74.1958 53.6391 77.3233 58.6557 78.5788C59.9533 78.9035 60.4179 78.9488 62.4569 78.9488C64.4943 78.9488 64.9616 78.9033 66.2581 78.5794C72.0225 77.1393 76.3851 73.1804 78.402 67.5595C79.0593 65.728 79.2736 64.3605 79.2736 61.9985C79.2736 58.8684 78.8106 56.9285 77.4139 54.2071C75.1681 49.8311 71.0069 46.627 66.1173 45.5086C65.0262 45.259 61.3562 45.0257 60.7675 45.1685ZM63.446 51.4414C64.091 51.7704 64.5687 52.5761 64.5687 53.3346C64.5687 53.6619 64.6347 53.8329 64.761 53.8329C65.1487 53.8329 66.9573 54.8428 67.3009 55.2509C68.2693 56.4018 67.69 58.199 66.2229 58.5951C65.6214 58.7576 64.9685 58.6222 64.2184 58.1797C63.5423 57.7807 62.3955 57.6909 61.4582 57.9634C60.7252 58.1764 60.0635 58.6224 60.0635 58.9034C60.0635 59.2154 60.8771 59.5054 63.0204 59.9572C65.6406 60.5095 66.8046 60.9886 67.6972 61.8822C68.4376 62.6237 68.7767 63.3092 68.9747 64.4646C69.351 66.6619 67.9326 68.8124 65.4404 69.8231C64.6675 70.1365 64.6362 70.1696 64.5613 70.7543C64.4484 71.6343 64.0773 72.2334 63.445 72.5559C62.7248 72.9234 62.1357 72.9138 61.4408 72.5232C60.8036 72.1651 60.3451 71.4002 60.3451 70.6954C60.3451 70.2656 60.2926 70.2114 59.6567 69.9856C58.6599 69.6315 57.6384 68.9014 57.3457 68.3338C57.0336 67.7281 57.0986 66.7706 57.4875 66.2499C58.2395 65.2424 59.2422 65.0654 60.4929 65.7195C61.4422 66.2159 62.4579 66.3235 63.4556 66.0335C64.1885 65.8205 64.8502 65.3745 64.8502 65.0935C64.8502 64.7815 64.0366 64.4915 61.8933 64.0397C59.2732 63.4874 58.1092 63.0083 57.2166 62.1147C56.4754 61.3724 56.137 60.6877 55.9383 59.5271C55.5279 57.131 57.1725 54.9164 60.0987 53.9253C60.2736 53.866 60.3468 53.6872 60.351 53.3094C60.3592 52.5747 60.7611 51.8877 61.4141 51.4924C62.0882 51.0844 62.7152 51.0686 63.446 51.4414ZM27.5729 64.3443C27.3188 64.4696 26.9704 64.7691 26.7986 65.0098C26.377 65.601 26.4075 66.8472 26.902 69.2218C29.2891 80.6875 37.2381 90.4533 48.1011 95.266C50.97 96.5372 55.0503 97.6835 57.7511 97.9771C58.8612 98.0979 59.6419 97.7395 60.0617 96.9167C60.3148 96.4203 60.3451 96.0891 60.3451 93.8075C60.3451 90.1132 60.2437 89.9654 57.304 89.37C51.7379 88.2428 46.9758 85.668 42.8834 81.573C38.825 77.512 36.1386 72.5113 35.1259 67.1329C34.5859 64.2644 34.3555 64.1094 30.6395 64.1136C28.529 64.1161 27.9474 64.1598 27.5729 64.3443ZM79.4214 83.8753C79.1892 83.9769 78.2917 84.5365 77.4271 85.1187C74.0293 87.4067 70.7366 88.7818 66.896 89.5167C64.7755 89.9224 64.5687 90.3044 64.5687 93.8158C64.5687 96.6683 64.6659 97.0843 65.4659 97.655C66.0466 98.0692 67.2155 98.064 69.2488 97.6381C72.2913 97.0006 75.029 96.0347 77.8728 94.5955C81.0795 92.9725 84.4537 90.7081 84.9998 89.8127C85.3134 89.2982 85.3416 88.4576 85.0626 87.931C84.761 87.3618 81.3116 83.9972 80.8553 83.8271C80.3387 83.6344 79.9409 83.6478 79.4214 83.8753Z" fill="black"/>
</svg>
