<svg width="125" height="124" viewBox="0 0 125 124" fill="none" xmlns="http://www.w3.org/2000/svg">
<rect x="1.5" y="1" width="122" height="122" stroke="#D6D6D6" stroke-width="2"/>
<path fill-rule="evenodd" clip-rule="evenodd" d="M27.5913 26.259C27.27 26.4288 26.9556 26.7524 26.7828 27.0913C26.5018 27.6425 26.5 27.8608 26.5 61.9845C26.5 96.1218 26.5017 96.3263 26.7831 96.8782C26.9653 97.2357 27.264 97.5345 27.6213 97.7168C28.1729 97.9983 28.3772 98 62.497 98C96.6168 98 96.8211 97.9983 97.3727 97.7168C97.9967 97.3983 98.494 96.5878 98.494 95.8897C98.494 95.1916 97.9967 94.3811 97.3727 94.0626C96.8369 93.7891 96.5573 93.7794 89.2192 93.7794H81.6204V80.4489V67.1184L87.948 60.7886L94.2756 54.4589V56.328C94.2756 57.9237 94.3171 58.2784 94.5587 58.7523C94.877 59.3766 95.6871 59.8742 96.3848 59.8742C97.0825 59.8742 97.8926 59.3766 98.2109 58.7523C98.4778 58.229 98.494 57.9299 98.494 53.5329C98.494 46.768 98.9389 47.2125 92.1664 47.2125C87.7821 47.2125 87.4831 47.2288 86.9601 47.4956C86.3362 47.8142 85.8388 48.6247 85.8388 49.3227C85.8388 50.0208 86.3362 50.8313 86.9601 51.1498C87.4313 51.3903 87.7967 51.434 89.3837 51.4396L91.2524 51.4462L81.0931 61.5551L70.9338 71.6639V82.7217V93.7794H68.8246H66.7154L66.7094 84.8107L66.7033 75.842L61.4715 72.5855L56.2397 69.3291L56.2039 81.5543L56.1679 93.7794H54.0601H51.9524L51.9166 80.1076L51.8807 66.4359L46.6077 63.171L41.3347 59.906L41.299 76.8427L41.2633 93.7794H39.1546H37.046V78.0211V62.2627L33.8822 64.3761L30.7184 66.4895V47.0677C30.7184 27.8803 30.715 27.6393 30.4353 27.0907C29.9165 26.0732 28.6463 25.7017 27.5913 26.259ZM60.1797 26.1161C52.685 27.2947 46.9625 33.0354 45.8114 40.5299C45.4154 43.1082 45.7528 46.3934 46.6609 48.8008C48.7809 54.4215 53.5352 58.4317 59.4738 59.6087C60.9147 59.8943 64.3807 59.8581 65.843 59.5423C69.7972 58.6882 73.273 56.5915 75.6716 53.6137C77.3692 51.506 78.3988 49.4312 79.0572 46.7904C79.3724 45.5262 79.4267 44.9988 79.4332 43.1326C79.4416 40.7629 79.2916 39.7256 78.6568 37.7648C77.8306 35.212 76.4787 33.0385 74.4619 31.0208C72.0601 28.6176 69.3585 27.1065 66.1529 26.373C64.7638 26.055 61.4688 25.9133 60.1797 26.1161ZM63.485 32.4423C64.1291 32.7711 64.6062 33.5762 64.6062 34.3341C64.6062 34.6612 64.6721 34.8321 64.7983 34.8321C65.1855 34.8321 66.992 35.8412 67.3351 36.2491C68.3024 37.3992 67.7237 39.195 66.2584 39.5909C65.6577 39.7533 65.0055 39.618 64.2564 39.1758C63.5811 38.7771 62.4357 38.6873 61.4995 38.9597C60.7675 39.1725 60.1066 39.6182 60.1066 39.899C60.1066 40.2108 60.9192 40.5006 63.0599 40.9521C65.6768 41.504 66.8394 41.9827 67.7309 42.8757C68.4712 43.6175 68.8091 44.3017 69.0077 45.4615C69.4176 47.8559 67.7749 50.0689 64.8523 51.0594C64.6795 51.118 64.6062 51.2923 64.6062 51.6452C64.6062 52.7875 63.5976 53.8247 62.4866 53.8247C61.4375 53.8247 60.3878 52.7534 60.3878 51.6827C60.3878 51.2532 60.3354 51.1991 59.7002 50.9734C58.7047 50.6196 57.6844 49.89 57.392 49.3227C57.0803 48.7175 57.1453 47.7607 57.5336 47.2403C58.2848 46.2336 59.2862 46.0567 60.5354 46.7103C61.4836 47.2064 62.498 47.3139 63.4945 47.0241C64.2265 46.8112 64.8874 46.3655 64.8874 46.0847C64.8874 45.773 64.0748 45.4831 61.9341 45.0317C59.3172 44.4798 58.1546 44.001 57.2631 43.1081C56.5228 42.3662 56.1849 41.6821 55.9863 40.5223C55.5764 38.1278 57.2191 35.9148 60.1417 34.9244C60.3164 34.8652 60.3895 34.6865 60.3937 34.3089C60.4019 33.5748 60.8033 32.8882 61.4555 32.4932C62.1287 32.0855 62.755 32.0697 63.485 32.4423Z" fill="black"/>
</svg>
