<svg width="93" height="114" viewBox="0 0 93 114" fill="none" xmlns="http://www.w3.org/2000/svg">
<g clip-path="url(#clip0_9_230)">
<path fill-rule="evenodd" clip-rule="evenodd" d="M22.3172 104.047C24.1641 104.047 25.6627 105.731 25.6627 107.806C25.6627 109.881 24.1641 111.565 22.3172 111.565C20.4703 111.565 18.9718 109.881 18.9718 107.806C18.9718 105.731 20.4703 104.047 22.3172 104.047ZM22.3172 101.184C25.9969 101.184 28.981 104.15 28.981 107.806C28.981 111.463 25.9969 114.428 22.3172 114.428C18.6376 114.428 15.6534 111.463 15.6534 107.806C15.6534 104.15 18.6376 101.184 22.3172 101.184ZM37.9015 104.047C39.0434 104.047 40.1176 104.559 40.7214 105.541L42.9103 103.44C41.6888 102.057 39.8977 101.184 37.9015 101.184C34.2219 101.184 31.2377 104.15 31.2377 107.806C31.2377 111.463 34.2219 114.428 37.9015 114.428C39.944 114.428 41.7717 113.514 42.9942 112.075L40.7196 110.126C40.1124 111.076 39.0218 111.565 37.9015 111.565C36.0546 111.565 34.5561 109.881 34.5561 107.806C34.5561 105.731 36.0546 104.047 37.9015 104.047ZM59.9286 108.675H69.5001C69.5363 108.391 69.5552 108.101 69.5552 107.806C69.5552 104.15 66.6768 101.184 63.1277 101.184C59.5786 101.184 56.7003 104.15 56.7003 107.806C56.7003 111.463 59.5786 114.428 63.1277 114.428C65.1517 114.428 67.479 114.084 68.6572 112.577L67.1938 110.457C66.4597 111.513 64.5176 111.808 63.2783 111.808C61.6402 111.808 60.2692 110.466 59.9286 108.675H59.9286ZM60.0015 106.617C60.4361 104.988 61.7393 103.804 63.2782 103.804C64.8172 103.804 66.1205 104.988 66.5551 106.617H60.0015ZM44.9269 101.487H55.2278V104.328H51.6677V114.125H48.4869V104.328H44.9269V101.487ZM74.82 107.61L70.484 101.487H74.3145L76.9096 105.399L79.5048 101.487H83.3353L78.9993 107.61L83.5316 114.125H79.8301L76.9096 109.895L73.9892 114.125H70.2876L74.82 107.61ZM76.9096 105.991L76.8947 106.016L76.9096 106.016L76.9246 106.016L76.9096 105.991ZM7.91573 99.8265C9.29723 99.8265 10.4175 100.948 10.4175 102.331C10.4175 103.714 9.29723 104.836 7.91573 104.836H3.69897V99.8265H7.91573ZM0.205078 96.8524H8.63492C11.657 96.8524 14.1077 99.3058 14.1077 102.331C14.1077 105.356 11.6569 107.81 8.63492 107.81H3.69897V114.125H0.205078V96.8524Z" fill="white"/>
<path fill-rule="evenodd" clip-rule="evenodd" d="M21.2854 10.679H49.1776L38.51 0H10.6178V27.9223L21.2854 38.6013V10.679ZM54.9368 10.679H82.829V38.6013L93.4965 27.9223V0H65.6043L54.9368 10.679ZM82.829 44.3666V72.2888H54.9368L65.6043 82.9678H93.4965V55.0456L82.829 44.3666ZM49.1776 72.2888H21.2854V44.3666L10.6178 55.0456V82.9678H38.51L49.1776 72.2888Z" fill="white"/>
<path d="M0 0.451904H2.66879V1.02789H1.6222V4.22672H1.04659V1.02789H0V0.451904ZM5.06569 3.2622L6.31562 0.452135H6.95636V4.22664H6.38075V1.74648L5.27414 4.22664H4.8572L3.75064 1.74648V4.22664H3.17504V0.452135H3.81572L5.06569 3.2622Z" fill="white"/>
</g>
<defs>
<clipPath id="clip0_9_230">
<rect width="93" height="114" fill="white"/>
</clipPath>
</defs>
</svg>
